<?xml version="1.0" standalone="no"?>
<!DOCTYPE svg PUBLIC "-//W3C//DTD SVG 20010904//EN"
 "http://www.w3.org/TR/2001/REC-SVG-20010904/DTD/svg10.dtd">
<svg version="1.0" xmlns="http://www.w3.org/2000/svg"
 width="700.000000pt" height="700.000000pt" viewBox="0 0 700.000000 700.000000"
 preserveAspectRatio="xMidYMid meet">
<metadata>
Created by potrace 1.14, written by Peter Selinger 2001-2017
</metadata>
<g transform="translate(0.000000,700.000000) scale(0.100000,-0.100000)"
fill="#000000" stroke="none">
<path d="M6248 6980 c-347 -71 -747 -266 -1297 -632 l-194 -129 -106 44 c-299
124 -546 184 -904 222 -97 10 -425 7 -537 -5 -703 -75 -1322 -365 -1805 -845
-345 -343 -590 -732 -742 -1180 -54 -161 -112 -407 -128 -550 -4 -33 -10 -69
-12 -80 -3 -11 -7 -141 -8 -290 -3 -221 0 -296 16 -414 35 -261 98 -500 195
-744 l56 -137 -119 -178 c-325 -483 -530 -883 -617 -1202 -32 -118 -35 -140
-41 -270 -5 -129 12 -224 55 -311 61 -120 182 -219 314 -256 83 -23 246 -25
361 -3 148 28 242 57 420 129 101 40 453 225 575 300 227 142 293 184 410 265
l100 69 128 -51 c213 -86 358 -128 602 -177 28 -5 95 -16 130 -20 19 -2 64 -7
100 -12 136 -16 574 -9 710 13 270 42 498 104 724 196 794 326 1417 984 1695
1792 38 108 102 352 115 436 4 19 13 80 22 135 22 138 27 589 9 740 -37 294
-102 546 -207 802 l-50 122 85 123 c370 540 610 1022 677 1364 24 122 22 322
-4 394 -29 79 -74 156 -121 206 -26 27 -112 87 -152 105 -111 51 -292 62 -455
29z m250 -531 c9 -135 -103 -434 -280 -754 -64 -115 -235 -394 -265 -432 l-18
-23 -57 78 c-63 84 -81 105 -200 235 -86 94 -258 250 -370 335 l-68 51 28 19
c150 106 543 329 714 405 118 53 292 115 347 123 20 3 38 8 41 10 2 3 31 4 65
2 l60 -3 3 -46z m-5314 -4843 c137 -168 342 -365 510 -489 l68 -51 -26 -21
c-77 -62 -404 -254 -586 -346 -274 -137 -454 -197 -582 -195 -61 1 -63 2 -68
31 -23 127 120 498 332 860 90 155 86 147 162 264 l69 105 16 -24 c9 -13 56
-74 105 -134z"/>
</g>
</svg>
